<svg width="215" height="203" viewBox="0 0 215 203" fill="none" xmlns="http://www.w3.org/2000/svg">
<path d="M106.984 44C90.3739 44 74.1364 48.6507 60.3252 57.3639C46.514 66.0772 35.7495 78.4617 29.393 92.9513C23.0364 107.441 21.3732 123.385 24.6138 138.767C27.8543 154.149 35.8531 168.278 47.5985 179.368C59.3439 190.458 74.3085 198.01 90.5999 201.07C106.891 204.13 123.778 202.559 139.124 196.558C154.47 190.556 167.587 180.392 176.815 167.352C186.043 154.312 190.969 138.98 190.969 123.297C190.944 102.273 182.088 82.1171 166.343 67.251C150.599 52.385 129.251 44.0231 106.984 44ZM57.3245 179.138C62.309 170.851 69.5307 163.959 78.2541 159.164C86.9774 154.37 96.8908 151.844 106.984 151.844C117.078 151.844 126.991 154.37 135.715 159.164C144.438 163.959 151.66 170.851 156.644 179.138C142.744 190.189 125.156 196.25 106.984 196.25C88.8125 196.25 71.2246 190.189 57.3245 179.138ZM161.717 174.737C153.371 161.563 139.992 151.913 124.336 147.776C131.615 144.121 137.391 138.272 140.744 131.16C144.097 124.048 144.834 116.082 142.84 108.528C140.845 100.975 136.232 94.2686 129.734 89.476C123.237 84.6834 115.229 82.08 106.984 82.08C98.7396 82.08 90.7315 84.6834 84.2344 89.476C77.7373 94.2686 73.1243 100.975 71.1293 108.528C69.1344 116.082 69.8721 124.048 73.2251 131.16C76.5781 138.272 82.3538 144.121 89.6332 147.776C73.9768 151.913 60.5974 161.563 52.2518 174.737C41.4736 164.524 34.1422 151.524 31.1833 137.38C28.2243 123.236 29.7706 108.58 35.6267 95.2652C41.4829 81.95 51.3864 70.5717 64.0867 62.567C76.7869 54.5623 91.7145 50.2903 106.984 50.2903C122.254 50.2903 137.182 54.5623 149.882 62.567C162.582 70.5717 172.486 81.95 178.342 95.2652C184.198 108.58 185.744 123.236 182.786 137.38C179.827 151.524 172.495 164.524 161.717 174.737ZM106.984 145.5C101.005 145.5 95.1591 143.826 90.1871 140.689C85.2151 137.552 81.3399 133.094 79.0515 127.878C76.7631 122.661 76.1644 116.921 77.331 111.384C78.4976 105.846 81.3771 100.76 85.6055 96.7674C89.8338 92.7751 95.2211 90.0563 101.086 88.9548C106.951 87.8533 113.03 88.4186 118.555 90.5793C124.079 92.7399 128.801 96.3988 132.123 101.093C135.446 105.788 137.219 111.307 137.219 116.953C137.219 124.524 134.033 131.785 128.363 137.139C122.693 142.492 115.003 145.5 106.984 145.5Z" fill="#23424A" fill-opacity="0.64"/>
</svg>
